%TF.GenerationSoftware,Altium Limited,Altium Designer,25.8.1 (18)*%
G04 Layer_Physical_Order=1*
G04 Layer_Color=255*
%FSLAX45Y45*%
%MOMM*%
%TF.SameCoordinates,3470B611-CC8C-46C0-BD28-353B7AEA60CB*%
%TF.FilePolarity,Positive*%
%TF.FileFunction,Copper,L1,Top,Signal*%
%TF.Part,Single*%
G01*
G75*
%TA.AperFunction,SMDPad,CuDef*%
%ADD10R,1.00000X0.66000*%
%ADD11R,1.45000X1.25000*%
%ADD12R,1.70000X0.60000*%
%ADD13R,2.70000X1.00000*%
%TA.AperFunction,Conductor*%
%ADD14C,0.30000*%
%TA.AperFunction,ViaPad*%
%ADD15C,0.70000*%
D10*
X10220000Y4645000D02*
D03*
Y4455000D02*
D03*
Y4550000D02*
D03*
X10480000Y4645000D02*
D03*
Y4455000D02*
D03*
D11*
X9950000Y4657500D02*
D03*
X10675000Y4467500D02*
D03*
X9950000Y4492500D02*
D03*
X10675000Y4632500D02*
D03*
D12*
X9675000Y4625000D02*
D03*
X10972500Y4612500D02*
D03*
X9675000Y4500000D02*
D03*
X10972500Y4487500D02*
D03*
D13*
X11292500Y4797500D02*
D03*
Y4302500D02*
D03*
X9355000Y4315000D02*
D03*
Y4810000D02*
D03*
D14*
X10100000Y4550000D02*
X10220000D01*
X10675000Y4300000D02*
Y4467500D01*
X11042500Y4600000D02*
X11175000D01*
X10972500Y4612500D02*
X11042500Y4600000D01*
X10317426Y4632574D02*
X10350000Y4600000D01*
X10222426Y4632574D02*
X10317426D01*
X10350000Y4500000D02*
Y4600000D01*
X10215000Y4640000D02*
X10222426Y4632574D01*
X10300000Y4450000D02*
X10350000Y4500000D01*
X10215000Y4450000D02*
X10300000D01*
X9975000Y4640000D02*
X9975000Y4640000D01*
X10215000D01*
X9825000Y4650000D02*
X9965000D01*
X9975000Y4640000D01*
X9800000Y4625000D02*
X9825000Y4650000D01*
X9675000Y4625000D02*
X9800000D01*
X9500000Y4500000D02*
X9675000D01*
X9950000Y4300000D02*
Y4492500D01*
X10707500Y4625000D02*
X10800000D01*
X10825000Y4525000D02*
Y4600000D01*
X10700000Y4632500D02*
X10707500Y4625000D01*
X10800000D02*
X10825000Y4600000D01*
X10865000Y4485000D02*
X10980000D01*
X10825000Y4525000D02*
X10865000Y4485000D01*
X10692500Y4640000D02*
X10700000Y4632500D01*
X10475000Y4640000D02*
X10692500D01*
D15*
X10100000Y4550000D02*
D03*
X9500000Y4500000D02*
D03*
X9950000Y4300000D02*
D03*
X11175000Y4600000D02*
D03*
X10675000Y4300000D02*
D03*
%TF.MD5,06842c92cd78e5832fe1935bb2f21008*%
M02*
